<svg xmlns="http://www.w3.org/2000/svg" width="399" height="204" viewBox="0 0 400 204" shape-rendering="geometricPrecision" image-rendering="optimizeQuality" fill-rule="evenodd" xmlns:v="https://vecta.io/nano"><g fill="#eaebed"><path d="M145 24h33v154h-33zm71 0h33v154h-33zM27 24h37l39 155H66z"/><path d="M131 24h-20c-1 1-1 4 0 5 2 6 1 13 0 19L81 179h15zm89 99h-73l-9 14h58c9 0 21-7 24-14zm107-34c-51-10-34-52-5-52h47l6-13h-61c-18 0-57 18-52 53 2 23 18 32 47 40 50 12 34 48 12 48h-54l6 14h51c27 0 51-19 51-46-1-28-16-38-48-44z"/></g><path d="M8 7h386v190H8z" stroke="#eaebed" fill="none"/></svg>